<?xml version="1.0" encoding="UTF-8"?>
<svg xmlns="http://www.w3.org/2000/svg" xmlns:xlink="http://www.w3.org/1999/xlink" width="52pt" height="40pt" viewBox="0 0 52 40" version="1.1">
<g id="surface1">
<path style=" stroke:none;fill-rule:evenodd;fill:rgb(96.862745%,88.235294%,13.72549%);fill-opacity:1;" d="M 25.996094 0 C 40.351562 0 51.992188 8.953125 51.992188 19.996094 C 51.992188 31.035156 40.351562 39.988281 25.996094 39.988281 C 11.640625 39.988281 0 31.035156 0 19.996094 C 0 8.953125 11.640625 0 25.996094 0 "/>
<path style=" stroke:none;fill-rule:evenodd;fill:rgb(20.784314%,22.352941%,50.196078%);fill-opacity:1;" d="M 25.996094 0.84375 L 25.996094 0.847656 L 25.996094 0.84375 C 19.003906 0.84375 12.683594 3.015625 8.117188 6.527344 C 3.617188 9.988281 0.832031 14.753906 0.832031 19.992188 L 0.835938 19.992188 L 0.835938 19.996094 L 0.832031 19.996094 C 0.832031 25.234375 3.617188 30 8.117188 33.460938 C 12.683594 36.972656 19.003906 39.144531 25.996094 39.144531 L 25.996094 39.140625 L 26 39.140625 L 26 39.144531 C 32.988281 39.144531 39.308594 36.972656 43.875 33.460938 C 48.375 30 51.160156 25.234375 51.160156 19.996094 L 51.160156 19.992188 C 51.160156 14.753906 48.375 9.992188 43.875 6.527344 C 39.308594 3.015625 32.988281 0.84375 25.996094 0.84375 "/>
<path style=" stroke:none;fill-rule:evenodd;fill:rgb(96.862745%,88.235294%,13.72549%);fill-opacity:1;" d="M 25.996094 6.046875 C 21.121094 6.046875 16.71875 7.628906 13.535156 10.1875 C 10.398438 12.707031 8.457031 16.175781 8.457031 19.992188 L 8.457031 19.996094 C 8.457031 23.8125 10.398438 27.28125 13.535156 29.800781 C 16.71875 32.359375 21.121094 33.941406 25.996094 33.941406 L 26 33.941406 C 30.871094 33.941406 35.277344 32.359375 38.460938 29.800781 C 41.597656 27.28125 43.539062 23.8125 43.539062 19.996094 L 43.535156 19.996094 L 43.535156 19.992188 L 43.539062 19.992188 C 43.539062 16.175781 41.597656 12.707031 38.460938 10.1875 C 35.277344 7.628906 30.871094 6.046875 25.996094 6.046875 "/>
<path style=" stroke:none;fill-rule:evenodd;fill:rgb(73.333333%,74.117647%,74.901961%);fill-opacity:1;" d="M 26.324219 7.105469 L 25.453125 7.105469 C 23.332031 7.160156 21.3125 7.53125 19.460938 8.15625 C 19.035156 8.300781 18.609375 8.464844 18.179688 8.648438 C 17.757812 8.824219 17.351562 9.015625 16.960938 9.214844 C 15.957031 9.734375 15.023438 10.335938 14.183594 11.011719 L 14.179688 11.011719 L 14.179688 11.015625 C 13.765625 11.347656 13.375 11.695312 13.019531 12.054688 C 12.652344 12.414062 12.316406 12.792969 12.003906 13.179688 C 10.492188 15.066406 9.585938 17.28125 9.5 19.640625 L 9.5 20.34375 C 9.539062 21.371094 9.730469 22.371094 10.058594 23.328125 C 10.179688 23.679688 10.316406 24.023438 10.472656 24.351562 C 11.277344 26.09375 12.554688 27.667969 14.183594 28.976562 L 14.195312 28.988281 C 14.609375 29.320312 15.042969 29.632812 15.5 29.929688 C 15.945312 30.214844 16.429688 30.496094 16.953125 30.765625 C 19.472656 32.066406 22.460938 32.835938 25.683594 32.882812 L 26.519531 32.882812 C 28.648438 32.828125 30.675781 32.460938 32.53125 31.832031 C 32.957031 31.6875 33.386719 31.523438 33.816406 31.339844 C 34.238281 31.164062 34.640625 30.972656 35.03125 30.773438 C 36.039062 30.253906 36.96875 29.652344 37.8125 28.976562 L 37.8125 28.972656 C 38.226562 28.640625 38.617188 28.292969 38.976562 27.933594 C 39.339844 27.574219 39.679688 27.195312 39.992188 26.808594 C 41.5 24.921875 42.40625 22.714844 42.492188 20.355469 L 42.492188 19.628906 C 42.453125 18.605469 42.261719 17.613281 41.933594 16.660156 C 41.8125 16.308594 41.675781 15.964844 41.523438 15.636719 C 40.71875 13.894531 39.441406 12.324219 37.8125 11.011719 L 37.796875 10.996094 L 37.792969 10.996094 C 37.382812 10.667969 36.949219 10.351562 36.492188 10.058594 C 36.050781 9.773438 35.566406 9.492188 35.039062 9.222656 C 32.523438 7.925781 29.539062 7.15625 26.324219 7.105469 "/>
<path style=" stroke:none;fill-rule:evenodd;fill:rgb(27.843137%,50.980392%,64.705882%);fill-opacity:1;" d="M 26.261719 7.789062 L 26.261719 9.988281 C 26.742188 9.980469 27.222656 9.957031 27.699219 9.917969 C 27.265625 9.09375 26.78125 8.375 26.261719 7.789062 Z M 26.261719 10.515625 L 26.261719 14.8125 C 27.324219 14.8125 28.375 14.777344 29.40625 14.710938 C 29.046875 13.136719 28.550781 11.675781 27.953125 10.421875 C 27.394531 10.476562 26.828125 10.507812 26.261719 10.515625 Z M 26.261719 15.339844 L 26.261719 19.765625 L 30.046875 19.765625 C 30.042969 19.570312 30.035156 19.371094 30.023438 19.175781 C 29.953125 17.824219 29.78125 16.496094 29.519531 15.234375 C 28.453125 15.300781 27.363281 15.339844 26.261719 15.339844 Z M 26.261719 20.296875 L 26.265625 24.898438 C 27.402344 24.902344 28.535156 24.941406 29.644531 25.015625 C 29.945312 23.480469 30.074219 21.882812 30.058594 20.296875 Z M 26.265625 25.425781 L 26.265625 29.726562 C 26.839844 29.734375 27.410156 29.765625 27.976562 29.820312 C 28.683594 28.507812 29.195312 27.058594 29.535156 25.535156 C 28.460938 25.464844 27.367188 25.429688 26.265625 25.425781 Z M 26.265625 30.253906 L 26.265625 32.269531 C 26.800781 31.671875 27.277344 31.019531 27.691406 30.324219 C 27.21875 30.285156 26.742188 30.261719 26.265625 30.253906 Z M 25.746094 32.269531 L 25.746094 30.253906 C 25.265625 30.257812 24.785156 30.277344 24.3125 30.316406 C 24.726562 31.015625 25.203125 31.671875 25.746094 32.269531 Z M 25.746094 29.726562 L 25.742188 25.429688 C 24.65625 25.4375 23.5625 25.480469 22.476562 25.558594 C 22.816406 27.066406 23.324219 28.507812 24.027344 29.8125 C 24.59375 29.757812 25.167969 29.730469 25.746094 29.726562 Z M 25.742188 24.898438 L 25.742188 20.296875 L 21.949219 20.296875 C 21.933594 21.890625 22.066406 23.496094 22.367188 25.039062 C 23.488281 24.953125 24.621094 24.910156 25.742188 24.898438 Z M 25.742188 19.765625 L 25.742188 15.339844 C 24.660156 15.332031 23.570312 15.289062 22.492188 15.210938 C 22.226562 16.480469 22.054688 17.816406 21.980469 19.175781 C 21.972656 19.371094 21.964844 19.570312 21.957031 19.765625 Z M 25.742188 14.8125 L 25.742188 10.515625 C 25.175781 10.511719 24.609375 10.484375 24.050781 10.433594 C 23.453125 11.679688 22.960938 13.125 22.605469 14.6875 C 23.648438 14.761719 24.699219 14.804688 25.742188 14.8125 Z M 25.742188 9.988281 L 25.742188 7.792969 C 25.222656 8.378906 24.742188 9.101562 24.304688 9.925781 C 24.78125 9.964844 25.261719 9.984375 25.742188 9.988281 Z M 21.085938 30.316406 C 21.707031 30.15625 22.355469 30.023438 23.019531 29.929688 C 23.167969 29.90625 23.316406 29.886719 23.464844 29.871094 C 22.785156 28.554688 22.285156 27.109375 21.953125 25.601562 C 21.300781 25.65625 20.648438 25.722656 20.003906 25.804688 C 19.050781 25.925781 18.117188 26.074219 17.210938 26.253906 C 17.320312 26.433594 17.433594 26.609375 17.550781 26.785156 C 18.441406 28.101562 19.621094 29.300781 21.085938 30.316406 Z M 23.089844 30.453125 C 22.609375 30.519531 22.140625 30.609375 21.683594 30.714844 C 22.707031 31.355469 23.855469 31.910156 25.125 32.359375 C 24.605469 31.742188 24.144531 31.078125 23.738281 30.371094 C 23.523438 30.394531 23.304688 30.421875 23.089844 30.453125 Z M 28.535156 29.882812 C 29.351562 29.984375 30.144531 30.136719 30.894531 30.339844 C 32.375 29.316406 33.566406 28.105469 34.460938 26.78125 C 34.589844 26.59375 34.714844 26.402344 34.828125 26.207031 C 33.339844 25.914062 31.730469 25.703125 30.058594 25.574219 C 29.726562 27.097656 29.226562 28.554688 28.535156 29.882812 Z M 30.296875 30.730469 C 29.644531 30.578125 28.960938 30.460938 28.261719 30.378906 C 27.859375 31.085938 27.402344 31.746094 26.882812 32.359375 C 28.144531 31.914062 29.28125 31.363281 30.296875 30.730469 Z M 16.933594 25.769531 C 17.910156 25.574219 18.917969 25.410156 19.9375 25.28125 C 20.570312 25.203125 21.207031 25.132812 21.847656 25.078125 C 21.542969 23.519531 21.414062 21.902344 21.425781 20.296875 L 15.484375 20.296875 C 15.507812 22.175781 15.992188 24.046875 16.933594 25.769531 Z M 30.164062 25.054688 C 31.898438 25.191406 33.566406 25.414062 35.105469 25.726562 C 36.027344 24.015625 36.503906 22.160156 36.53125 20.296875 L 30.578125 20.296875 C 30.59375 21.894531 30.464844 23.503906 30.164062 25.054688 Z M 15.488281 19.765625 L 21.4375 19.765625 C 21.445312 19.558594 21.453125 19.355469 21.460938 19.148438 C 21.535156 17.789062 21.707031 16.449219 21.96875 15.171875 C 21.285156 15.117188 20.609375 15.046875 19.9375 14.960938 C 18.917969 14.832031 17.914062 14.671875 16.9375 14.472656 C 16.03125 16.152344 15.546875 17.957031 15.488281 19.765625 Z M 30.570312 19.765625 L 36.527344 19.765625 C 36.46875 17.972656 35.992188 16.183594 35.097656 14.519531 C 33.523438 14.832031 31.816406 15.0625 30.042969 15.195312 C 30.300781 16.464844 30.472656 17.796875 30.542969 19.148438 C 30.554688 19.355469 30.5625 19.5625 30.570312 19.765625 Z M 17.214844 13.992188 C 18.121094 14.167969 19.054688 14.316406 20.003906 14.4375 C 20.6875 14.523438 21.382812 14.59375 22.082031 14.648438 C 22.433594 13.089844 22.917969 11.640625 23.503906 10.375 C 23.175781 10.335938 22.851562 10.289062 22.53125 10.234375 C 22.015625 10.148438 21.511719 10.039062 21.023438 9.90625 C 19.523438 10.992188 18.328125 12.261719 17.4375 13.636719 C 17.359375 13.753906 17.285156 13.871094 17.214844 13.992188 Z M 29.929688 14.675781 C 31.648438 14.546875 33.296875 14.332031 34.824219 14.035156 C 34.746094 13.902344 34.664062 13.769531 34.578125 13.636719 C 33.683594 12.253906 32.476562 10.976562 30.960938 9.886719 C 30.179688 10.097656 29.347656 10.257812 28.496094 10.363281 C 29.089844 11.636719 29.578125 13.101562 29.929688 14.675781 Z M 21.601562 9.507812 C 21.933594 9.585938 22.273438 9.65625 22.617188 9.714844 C 22.988281 9.777344 23.367188 9.832031 23.75 9.871094 C 24.160156 9.0625 24.613281 8.34375 25.101562 7.738281 C 23.804688 8.230469 22.636719 8.828125 21.601562 9.507812 Z M 28.253906 9.863281 C 28.984375 9.78125 29.703125 9.65625 30.382812 9.492188 C 29.355469 8.820312 28.195312 8.226562 26.90625 7.738281 C 27.394531 8.34375 27.84375 9.058594 28.253906 9.863281 Z M 26.324219 7.105469 L 25.453125 7.105469 C 24.121094 7.140625 22.011719 8.53125 20.921875 9.292969 C 20.789062 9.257812 20.65625 9.21875 20.527344 9.175781 C 19.871094 8.96875 19.265625 8.71875 18.71875 8.425781 C 18.539062 8.496094 18.359375 8.570312 18.179688 8.648438 L 18.105469 8.675781 C 18.257812 8.765625 18.4375 8.875 18.476562 8.894531 C 19.050781 9.199219 19.6875 9.460938 20.371094 9.679688 L 20.386719 9.683594 C 18.980469 10.753906 17.851562 11.984375 16.992188 13.308594 C 16.878906 13.484375 16.769531 13.664062 16.667969 13.84375 C 16.445312 13.796875 16.222656 13.746094 16.003906 13.695312 C 14.75 13.40625 13.558594 13.054688 12.457031 12.644531 C 12.332031 12.785156 12.210938 12.925781 12.09375 13.070312 L 12.183594 13.105469 L 12.203125 13.113281 C 13.351562 13.542969 14.589844 13.910156 15.886719 14.210938 C 16.054688 14.25 16.226562 14.289062 16.398438 14.324219 C 15.496094 16.039062 15.019531 17.882812 14.964844 19.730469 L 9.5 19.734375 L 9.5 20.261719 L 14.957031 20.257812 C 14.984375 22.175781 15.460938 24.082031 16.394531 25.84375 C 16.222656 25.878906 16.054688 25.917969 15.886719 25.957031 C 14.59375 26.257812 13.355469 26.625 12.207031 27.058594 C 12.328125 27.199219 12.453125 27.339844 12.582031 27.480469 C 13.648438 27.085938 14.796875 26.753906 16.003906 26.472656 C 16.222656 26.421875 16.441406 26.371094 16.664062 26.324219 C 16.804688 26.570312 16.957031 26.808594 17.117188 27.042969 C 17.96875 28.304688 19.078125 29.464844 20.4375 30.464844 C 19.890625 30.636719 19.371094 30.835938 18.890625 31.0625 C 18.675781 31.164062 18.472656 31.269531 18.277344 31.378906 L 18.277344 31.382812 C 18.488281 31.46875 18.703125 31.554688 18.917969 31.632812 C 18.980469 31.601562 19.046875 31.570312 19.109375 31.542969 C 19.679688 31.273438 20.304688 31.042969 20.972656 30.855469 C 20.984375 30.851562 22.964844 32.203125 25.085938 32.863281 C 25.285156 32.875 25.484375 32.878906 25.683594 32.882812 L 26.519531 32.882812 C 27.910156 32.847656 29.835938 31.636719 30.984375 30.871094 C 31.722656 31.082031 32.410156 31.34375 33.03125 31.652344 C 33.242188 31.574219 33.453125 31.492188 33.667969 31.402344 L 33.667969 31.398438 C 33.03125 31.039062 32.308594 30.734375 31.53125 30.488281 C 32.90625 29.480469 34.023438 28.3125 34.886719 27.042969 C 35.054688 26.792969 35.214844 26.539062 35.367188 26.28125 C 36.867188 26.597656 38.234375 27 39.414062 27.480469 C 39.546875 27.332031 39.675781 27.1875 39.800781 27.035156 C 38.621094 26.574219 37.03125 26.101562 35.632812 25.796875 C 36.546875 24.050781 37.019531 22.160156 37.042969 20.257812 L 42.492188 20.257812 L 42.492188 19.730469 L 37.039062 19.730469 C 36.984375 17.898438 36.515625 16.070312 35.625 14.367188 C 37.179688 14.03125 38.59375 13.609375 39.796875 13.101562 L 39.898438 13.066406 C 39.78125 12.921875 39.660156 12.78125 39.535156 12.640625 C 38.328125 13.140625 36.917969 13.558594 35.363281 13.886719 C 35.25 13.691406 35.132812 13.5 35.007812 13.308594 C 34.144531 11.972656 33.003906 10.734375 31.585938 9.660156 C 32.34375 9.417969 33.046875 9.121094 33.667969 8.765625 L 33.859375 8.667969 C 33.648438 8.578125 33.4375 8.492188 33.226562 8.410156 C 32.574219 8.757812 31.839844 9.046875 31.050781 9.273438 C 29.835938 8.429688 28.4375 7.699219 26.851562 7.121094 C 26.675781 7.113281 26.5 7.109375 26.324219 7.105469 Z M 26.324219 7.105469 "/>
<path style=" stroke:none;fill-rule:evenodd;fill:rgb(10.196078%,12.941176%,15.686275%);fill-opacity:1;" d="M 34.671875 22.167969 C 34.667969 22.210938 34.660156 22.253906 34.652344 22.296875 C 34.609375 22.53125 34.558594 22.75 34.507812 22.949219 L 34.503906 22.949219 C 34.207031 24.050781 33.683594 25.054688 32.925781 25.960938 L 32.925781 25.964844 L 32.921875 25.96875 C 32.71875 26.210938 32.507812 26.4375 32.285156 26.648438 C 32.066406 26.855469 31.832031 27.054688 31.582031 27.238281 C 30.328125 28.164062 28.816406 28.660156 27.03125 28.660156 C 26.222656 28.65625 25.460938 28.539062 24.753906 28.320312 C 24.625 28.28125 24.507812 28.242188 24.414062 28.210938 C 23.832031 28 23.292969 27.722656 22.800781 27.394531 L 22.796875 27.394531 C 22.722656 27.34375 22.632812 27.28125 22.527344 27.203125 C 22.421875 27.128906 22.332031 27.0625 22.261719 27.003906 C 22.171875 26.929688 22.082031 26.855469 21.992188 26.777344 L 21.992188 28.640625 L 19.90625 28.640625 L 19.90625 22.980469 L 21.992188 22.980469 L 21.992188 23.386719 C 22.609375 24.59375 23.539062 25.457031 24.597656 25.96875 C 25.582031 26.441406 26.671875 26.613281 27.730469 26.476562 C 28.789062 26.339844 29.816406 25.890625 30.667969 25.128906 C 31.496094 24.386719 32.164062 23.335938 32.539062 21.972656 C 31.640625 22.019531 30.714844 22.175781 29.769531 22.335938 C 27.628906 22.695312 25.398438 23.070312 22.957031 22.3125 L 22.582031 22.199219 L 22.585938 21.804688 L 22.59375 21.007812 L 22.59375 20.914062 L 22.597656 20.480469 L 22.605469 19.503906 L 22.609375 18.78125 L 23.289062 19.007812 C 25.378906 19.710938 27.476562 19.363281 29.574219 19.015625 C 30.425781 18.871094 31.277344 18.730469 32.144531 18.65625 C 31.492188 17.238281 30.554688 16.292969 29.5 15.753906 C 28.808594 15.402344 28.070312 15.222656 27.328125 15.195312 C 26.582031 15.164062 25.832031 15.292969 25.125 15.554688 C 23.820312 16.039062 22.671875 16.988281 21.992188 18.285156 L 21.992188 18.691406 L 19.90625 18.691406 L 19.90625 13.03125 L 21.992188 13.03125 L 21.992188 14.804688 C 22.226562 14.601562 22.484375 14.40625 22.769531 14.222656 L 22.773438 14.21875 L 22.773438 14.222656 C 22.945312 14.109375 23.125 14.003906 23.304688 13.910156 C 23.5 13.804688 23.6875 13.714844 23.863281 13.640625 L 23.867188 13.640625 C 24.839844 13.226562 25.914062 13.019531 27.089844 13.019531 L 27.089844 13.023438 C 28.304688 13.023438 29.394531 13.296875 30.359375 13.78125 C 30.511719 13.855469 30.667969 13.941406 30.824219 14.035156 C 31.59375 14.496094 32.28125 15.097656 32.878906 15.800781 C 33.324219 16.320312 33.691406 16.84375 33.980469 17.390625 C 34.21875 17.839844 34.40625 18.300781 34.539062 18.789062 C 34.585938 18.796875 34.628906 18.804688 34.664062 18.8125 C 35.082031 18.886719 35.539062 19.003906 35.972656 19.140625 L 36.339844 19.257812 L 36.339844 22.695312 L 35.648438 22.453125 L 35.632812 22.445312 C 35.539062 22.414062 35.453125 22.382812 35.367188 22.355469 C 35.277344 22.328125 35.195312 22.304688 35.125 22.28125 C 34.960938 22.234375 34.808594 22.195312 34.671875 22.167969 "/>
<path style=" stroke:none;fill-rule:evenodd;fill:rgb(96.862745%,88.235294%,13.72549%);fill-opacity:1;" d="M 13.046875 20.605469 C 13.554688 20.734375 13.847656 20.445312 13.886719 20.058594 C 13.898438 20.011719 13.90625 19.964844 13.90625 19.917969 C 13.90625 19.871094 13.898438 19.816406 13.890625 19.753906 C 13.828125 19.359375 13.527344 19.117188 13.046875 19.207031 Z M 13.289062 22.058594 L 13.289062 22.453125 L 13.628906 22.453125 L 13.628906 24.113281 L 10.132812 24.113281 L 10.132812 22.453125 L 10.492188 22.453125 L 10.484375 19.203125 L 10.113281 19.203125 L 10.121094 18.667969 L 10.132812 17.984375 L 10.140625 17.460938 L 12.65625 17.460938 L 12.65625 17.464844 C 13.246094 17.476562 13.835938 17.542969 14.324219 17.785156 C 14.957031 18.097656 15.390625 18.660156 15.398438 19.65625 C 15.40625 20.539062 15.160156 21.152344 14.679688 21.554688 C 14.324219 21.855469 13.859375 22.011719 13.289062 22.058594 Z M 13.289062 22.058594 "/>
<path style=" stroke:none;fill-rule:evenodd;fill:rgb(96.862745%,88.235294%,13.72549%);fill-opacity:1;" d="M 19.164062 19.894531 L 17.9375 19.894531 L 17.929688 19.367188 L 17.929688 19.246094 L 17.84375 19.246094 L 17.84375 22.421875 L 18.222656 22.421875 L 18.222656 24.113281 L 14.722656 24.113281 L 14.722656 22.421875 L 15.097656 22.421875 L 15.097656 19.230469 L 14.722656 19.230469 L 14.722656 17.460938 L 19.6875 17.460938 L 19.6875 19.894531 Z M 19.164062 19.894531 "/>
<path style=" stroke:none;fill-rule:evenodd;fill:rgb(96.470588%,88.235294%,14.509804%);fill-opacity:1;" d="M 33.710938 21.148438 C 33.707031 21.191406 33.699219 21.234375 33.691406 21.28125 L 33.6875 21.28125 C 33.648438 21.515625 33.597656 21.734375 33.546875 21.933594 L 33.542969 21.933594 C 33.246094 23.03125 32.722656 24.035156 31.964844 24.945312 L 31.960938 24.953125 C 31.757812 25.195312 31.546875 25.421875 31.324219 25.632812 C 31.105469 25.839844 30.871094 26.035156 30.621094 26.21875 C 29.367188 27.148438 27.855469 27.644531 26.070312 27.644531 L 26.070312 27.640625 C 25.261719 27.640625 24.5 27.523438 23.792969 27.304688 C 23.660156 27.265625 23.546875 27.226562 23.453125 27.191406 C 22.871094 26.984375 22.332031 26.707031 21.839844 26.378906 L 21.835938 26.375 C 21.761719 26.328125 21.671875 26.261719 21.566406 26.1875 C 21.460938 26.109375 21.371094 26.042969 21.300781 25.988281 C 21.210938 25.914062 21.121094 25.839844 21.03125 25.761719 L 21.03125 27.625 L 18.945312 27.625 L 18.945312 21.964844 L 21.03125 21.964844 L 21.03125 22.371094 C 21.648438 23.578125 22.578125 24.441406 23.636719 24.949219 C 24.621094 25.421875 25.710938 25.597656 26.769531 25.457031 C 27.828125 25.320312 28.855469 24.875 29.707031 24.113281 C 30.535156 23.371094 31.203125 22.320312 31.578125 20.957031 C 30.679688 21.003906 29.753906 21.160156 28.808594 21.316406 C 26.667969 21.675781 24.4375 22.050781 21.996094 21.296875 L 21.621094 21.179688 L 21.625 20.789062 L 21.632812 19.992188 L 21.632812 19.898438 L 21.636719 19.464844 L 21.644531 18.488281 L 21.648438 17.761719 L 22.328125 17.992188 C 24.417969 18.691406 26.515625 18.34375 28.613281 17.996094 C 29.464844 17.855469 30.316406 17.714844 31.183594 17.636719 C 30.53125 16.222656 29.59375 15.273438 28.535156 14.738281 C 27.847656 14.386719 27.109375 14.203125 26.367188 14.175781 C 25.621094 14.148438 24.871094 14.273438 24.164062 14.539062 C 22.859375 15.023438 21.710938 15.972656 21.03125 17.269531 L 21.03125 17.671875 L 18.945312 17.671875 L 18.945312 12.011719 L 21.03125 12.011719 L 21.03125 13.789062 C 21.265625 13.582031 21.523438 13.390625 21.808594 13.207031 L 21.808594 13.203125 L 21.8125 13.203125 C 21.984375 13.09375 22.164062 12.988281 22.34375 12.890625 C 22.539062 12.789062 22.726562 12.699219 22.902344 12.625 C 23.878906 12.210938 24.953125 12.003906 26.128906 12.003906 C 27.34375 12.003906 28.433594 12.277344 29.398438 12.761719 C 29.550781 12.839844 29.707031 12.925781 29.859375 13.019531 C 30.632812 13.480469 31.320312 14.078125 31.917969 14.78125 C 32.363281 15.304688 32.730469 15.828125 33.019531 16.375 C 33.257812 16.820312 33.445312 17.285156 33.578125 17.773438 C 33.625 17.78125 33.667969 17.789062 33.703125 17.796875 C 34.121094 17.871094 34.578125 17.988281 35.011719 18.125 L 35.378906 18.238281 L 35.378906 21.679688 L 34.6875 21.433594 L 34.671875 21.429688 C 34.578125 21.398438 34.492188 21.367188 34.40625 21.339844 C 34.316406 21.3125 34.234375 21.285156 34.164062 21.265625 C 34 21.21875 33.847656 21.179688 33.710938 21.148438 "/>
<path style=" stroke:none;fill-rule:evenodd;fill:rgb(96.862745%,88.235294%,13.72549%);fill-opacity:1;" d="M 41.359375 17.433594 L 41.878906 17.4375 L 41.878906 19.226562 L 41.507812 19.226562 L 41.542969 21.71875 L 41.542969 21.75 C 41.542969 21.828125 41.535156 21.902344 41.523438 21.972656 C 41.515625 22.035156 41.496094 22.109375 41.472656 22.1875 C 41.179688 23.21875 40.460938 23.960938 39.390625 24.167969 L 37.273438 24.175781 L 36.753906 24.175781 L 36.753906 22.554688 L 36.75 22.011719 L 37.285156 22.027344 L 37.933594 22.046875 L 38.414062 22.058594 L 38.433594 22.425781 L 38.78125 22.429688 L 38.78125 22.09375 L 38.640625 22.085938 L 38.601562 22.078125 C 37.9375 21.972656 37.496094 21.707031 37.195312 21.339844 C 36.898438 20.980469 36.757812 20.546875 36.6875 20.082031 L 36.679688 20.039062 L 36.679688 20 L 36.683594 19.226562 L 36.347656 19.226562 L 36.347656 17.429688 L 36.875 17.433594 L 38.183594 17.449219 C 38.300781 17.449219 38.417969 17.449219 38.535156 17.449219 L 38.511719 19.179688 L 38.273438 19.175781 L 38.269531 20.074219 C 38.265625 20.460938 38.71875 20.777344 38.988281 20.78125 L 38.980469 19.1875 L 38.574219 19.179688 L 38.601562 17.449219 C 39.519531 17.453125 40.441406 17.429688 41.359375 17.433594 "/>
<path style=" stroke:none;fill-rule:evenodd;fill:rgb(10.196078%,12.941176%,15.686275%);fill-opacity:1;" d="M 16.085938 23.585938 L 15.246094 23.585938 L 15.246094 22.949219 L 15.621094 22.949219 L 15.621094 18.703125 L 15.246094 18.703125 L 15.246094 17.988281 L 16.085938 17.988281 Z M 16.167969 23.585938 L 16.691406 23.585938 L 16.691406 17.988281 L 16.167969 17.988281 Z M 19.164062 19.363281 L 18.453125 19.363281 L 18.445312 18.710938 L 17.320312 18.726562 L 17.320312 22.949219 L 17.699219 22.949219 L 17.699219 23.585938 L 16.769531 23.585938 L 16.769531 17.988281 L 19.164062 17.988281 Z M 19.164062 19.363281 "/>
<path style=" stroke:none;fill-rule:evenodd;fill:rgb(10.196078%,12.941176%,15.686275%);fill-opacity:1;" d="M 33.265625 20.550781 C 33.117188 22.070312 32.550781 23.425781 31.5625 24.609375 C 30.210938 26.226562 28.394531 27.113281 26.070312 27.113281 C 24.558594 27.113281 23.226562 26.667969 22.125 25.9375 C 21.507812 25.527344 20.96875 25.03125 20.507812 24.453125 L 20.507812 27.09375 L 19.464844 27.09375 L 19.464844 22.492188 L 20.507812 22.492188 L 20.507812 22.496094 C 23.058594 27.714844 30.90625 27.265625 32.242188 20.417969 C 29.078125 20.371094 25.804688 21.925781 22.144531 20.792969 L 22.152344 19.996094 C 26.703125 20.925781 29.371094 19.691406 32.125 19.605469 L 32.125 19.015625 C 29.480469 19.09375 26.6875 20.242188 22.15625 19.46875 L 22.164062 18.492188 C 25.480469 19.605469 28.683594 18.242188 31.945312 18.117188 C 29.695312 11.894531 22.695312 12.742188 20.507812 17.144531 L 19.464844 17.144531 L 19.464844 12.542969 L 20.507812 12.542969 L 20.507812 15.132812 C 20.929688 14.554688 21.4375 14.070312 22.085938 13.652344 C 23.242188 12.90625 24.589844 12.53125 26.128906 12.53125 C 28.386719 12.53125 30.175781 13.546875 31.523438 15.128906 C 32.363281 16.109375 32.910156 17.097656 33.15625 18.25 C 33.667969 18.300781 34.285156 18.449219 34.855469 18.628906 L 34.855469 19.4375 C 34.324219 19.238281 33.804688 19.121094 33.289062 19.0625 L 33.289062 19.644531 C 33.796875 19.695312 34.316406 19.800781 34.855469 19.976562 L 34.855469 20.9375 C 34.175781 20.695312 33.640625 20.574219 33.265625 20.550781 "/>
<path style=" stroke:none;fill-rule:evenodd;fill:rgb(10.196078%,12.941176%,15.686275%);fill-opacity:1;" d="M 40.519531 17.957031 L 41.355469 17.960938 L 41.355469 18.699219 L 40.980469 18.699219 L 41.023438 21.722656 C 41.03125 22.019531 40.824219 22.519531 40.519531 22.933594 Z M 39.910156 17.953125 L 40.441406 17.957031 L 40.441406 23.039062 C 40.28125 23.242188 40.097656 23.414062 39.910156 23.523438 Z M 39.335938 20.851562 L 39.324219 18.6875 L 38.90625 18.683594 L 38.90625 17.949219 L 39.832031 17.953125 L 39.832031 23.566406 C 39.722656 23.617188 39.613281 23.644531 39.503906 23.640625 L 37.273438 23.648438 L 37.273438 22.554688 L 37.917969 22.570312 L 37.9375 22.949219 L 39.304688 22.960938 L 39.296875 21.605469 L 38.683594 21.558594 C 37.636719 21.390625 37.316406 20.757812 37.203125 20 L 37.203125 18.699219 L 36.871094 18.699219 L 36.871094 17.960938 L 38.179688 17.976562 L 38.179688 18.710938 L 37.945312 18.710938 L 37.9375 20.074219 C 37.996094 20.441406 38.234375 20.699219 38.660156 20.851562 Z M 39.335938 20.851562 "/>
<path style=" stroke:none;fill-rule:evenodd;fill:rgb(10.196078%,12.941176%,15.686275%);fill-opacity:1;" d="M 12.136719 23.585938 L 10.652344 23.585938 L 10.652344 22.980469 L 11.011719 22.980469 L 11.003906 18.671875 L 10.644531 18.671875 L 10.652344 17.988281 L 12.136719 17.988281 Z M 12.78125 20.867188 C 13.648438 20.984375 14.222656 20.519531 14.222656 19.808594 C 14.226562 18.980469 13.636719 18.660156 12.78125 18.730469 Z M 12.769531 21.542969 L 12.769531 22.980469 L 13.109375 22.980469 L 13.109375 23.585938 L 12.214844 23.585938 L 12.214844 17.988281 L 12.417969 17.988281 C 13.621094 17.988281 14.863281 18.152344 14.878906 19.660156 C 14.890625 21.082031 14.15625 21.582031 12.769531 21.542969 Z M 12.769531 21.542969 "/>
<path style=" stroke:none;fill-rule:evenodd;fill:rgb(100%,94.509804%,0%);fill-opacity:1;" d="M 32.539062 34.464844 L 32.972656 36.527344 L 33.570312 36.398438 L 33.65625 36.820312 L 32.0625 37.164062 L 31.972656 36.746094 L 32.566406 36.617188 L 32.136719 34.554688 Z M 34.824219 33.847656 L 35.472656 36.300781 L 34 36.699219 L 33.890625 36.285156 L 34.964844 35.992188 L 34.820312 35.449219 L 33.824219 35.71875 L 33.714844 35.308594 L 34.710938 35.035156 L 34.535156 34.367188 L 33.425781 34.671875 L 33.316406 34.257812 Z M 36.007812 33.363281 L 36.75 35.332031 L 37.320312 35.109375 L 37.472656 35.511719 L 35.949219 36.105469 L 35.796875 35.703125 L 36.367188 35.480469 L 35.621094 33.511719 Z M 38.332031 32.285156 L 39.390625 34.585938 L 39.03125 34.757812 L 38.328125 33.222656 L 38.28125 35.113281 L 37.902344 35.289062 L 36.84375 32.988281 L 37.203125 32.820312 L 37.894531 34.320312 L 37.953125 32.464844 Z M 39.488281 32.683594 L 39.066406 32.773438 C 38.96875 32.5 38.941406 32.269531 38.996094 32.078125 C 39.046875 31.890625 39.164062 31.734375 39.339844 31.617188 C 39.566406 31.46875 39.804688 31.4375 40.054688 31.519531 C 40.34375 31.617188 40.601562 31.839844 40.820312 32.183594 C 41.054688 32.546875 41.15625 32.882812 41.125 33.195312 C 41.097656 33.464844 40.96875 33.679688 40.730469 33.832031 C 40.535156 33.960938 40.332031 34 40.117188 33.953125 C 39.964844 33.917969 39.804688 33.820312 39.644531 33.664062 L 39.921875 33.335938 C 40.019531 33.4375 40.117188 33.496094 40.222656 33.515625 C 40.328125 33.53125 40.425781 33.511719 40.511719 33.453125 C 40.640625 33.371094 40.707031 33.246094 40.714844 33.082031 C 40.722656 32.917969 40.644531 32.703125 40.480469 32.445312 C 40.308594 32.175781 40.148438 32.011719 39.996094 31.949219 C 39.84375 31.886719 39.707031 31.898438 39.582031 31.980469 C 39.488281 32.042969 39.433594 32.128906 39.414062 32.246094 C 39.394531 32.363281 39.417969 32.507812 39.488281 32.683594 Z M 42.535156 32.039062 L 42.117188 31.457031 L 41.933594 31.59375 C 41.808594 31.683594 41.730469 31.753906 41.699219 31.804688 C 41.667969 31.855469 41.652344 31.914062 41.65625 31.980469 C 41.660156 32.050781 41.6875 32.117188 41.738281 32.183594 C 41.785156 32.253906 41.839844 32.300781 41.902344 32.324219 C 41.96875 32.347656 42.027344 32.351562 42.082031 32.335938 C 42.136719 32.320312 42.234375 32.261719 42.371094 32.160156 Z M 41.648438 30.085938 L 43.121094 32.140625 L 42.582031 32.535156 C 42.378906 32.683594 42.242188 32.769531 42.164062 32.796875 C 42.042969 32.839844 41.914062 32.828125 41.777344 32.773438 C 41.636719 32.71875 41.507812 32.609375 41.390625 32.445312 C 41.285156 32.296875 41.226562 32.152344 41.207031 32.007812 C 41.191406 31.867188 41.210938 31.746094 41.265625 31.644531 C 41.316406 31.542969 41.445312 31.417969 41.648438 31.269531 L 41.867188 31.105469 L 41.3125 30.332031 Z M 43.070312 28.753906 L 44.746094 30.644531 L 43.613281 31.675781 L 43.328125 31.355469 L 44.15625 30.605469 L 43.785156 30.183594 L 43.015625 30.886719 L 42.734375 30.566406 L 43.5 29.867188 L 43.046875 29.355469 L 42.191406 30.132812 L 41.910156 29.816406 Z M 44.992188 28.195312 L 44.464844 27.777344 L 44.226562 28.085938 C 44.125 28.21875 44.0625 28.3125 44.046875 28.359375 C 44.03125 28.410156 44.035156 28.464844 44.054688 28.523438 C 44.078125 28.578125 44.117188 28.632812 44.183594 28.683594 C 44.246094 28.734375 44.308594 28.761719 44.375 28.769531 C 44.4375 28.773438 44.496094 28.757812 44.542969 28.726562 C 44.597656 28.691406 44.675781 28.605469 44.785156 28.460938 Z M 45.777344 28.816406 L 45.320312 28.457031 L 45.152344 28.671875 C 45.050781 28.804688 44.992188 28.886719 44.972656 28.921875 C 44.9375 28.984375 44.925781 29.046875 44.941406 29.109375 C 44.953125 29.171875 44.992188 29.230469 45.058594 29.28125 C 45.117188 29.328125 45.175781 29.351562 45.230469 29.355469 C 45.289062 29.359375 45.332031 29.34375 45.371094 29.316406 C 45.410156 29.285156 45.496094 29.183594 45.628906 29.007812 Z M 46.359375 28.746094 L 45.855469 29.402344 C 45.714844 29.582031 45.601562 29.695312 45.515625 29.742188 C 45.425781 29.789062 45.320312 29.804688 45.199219 29.792969 C 45.082031 29.777344 44.96875 29.730469 44.867188 29.648438 C 44.769531 29.570312 44.703125 29.480469 44.65625 29.378906 C 44.613281 29.273438 44.601562 29.175781 44.617188 29.078125 C 44.507812 29.148438 44.390625 29.175781 44.265625 29.167969 C 44.140625 29.15625 44.019531 29.105469 43.898438 29.011719 C 43.753906 28.898438 43.660156 28.765625 43.617188 28.617188 C 43.570312 28.46875 43.574219 28.335938 43.625 28.222656 C 43.660156 28.144531 43.769531 27.984375 43.957031 27.742188 L 44.386719 27.183594 Z M 45.585938 25.453125 L 47.636719 26.910156 L 47.410156 27.238281 L 46.042969 26.265625 L 46.933594 27.925781 L 46.695312 28.273438 L 44.644531 26.816406 L 44.871094 26.488281 L 46.207031 27.4375 L 45.34375 25.800781 Z M 46.355469 23.488281 L 48.675781 24.441406 L 48.523438 24.828125 L 47.609375 24.457031 L 47.304688 25.21875 L 48.214844 25.59375 L 48.0625 25.984375 L 45.738281 25.035156 L 45.894531 24.644531 L 46.910156 25.058594 L 47.214844 24.292969 L 46.199219 23.878906 Z M 47.195312 22.371094 L 49.101562 21.96875 L 49.011719 22.429688 L 47.644531 22.652344 L 48.84375 23.316406 L 48.761719 23.742188 L 47.023438 22.6875 C 46.8125 22.554688 46.667969 22.441406 46.589844 22.34375 C 46.511719 22.246094 46.484375 22.140625 46.507812 22.03125 C 46.527344 21.925781 46.554688 21.832031 46.59375 21.753906 L 46.960938 21.824219 C 46.941406 21.890625 46.929688 21.941406 46.921875 21.976562 C 46.902344 22.078125 46.910156 22.152344 46.945312 22.199219 C 46.976562 22.25 47.0625 22.304688 47.195312 22.371094 Z M 49.902344 19.3125 L 49.9375 19.503906 C 49.78125 19.523438 49.648438 19.5 49.550781 19.4375 C 49.449219 19.375 49.390625 19.285156 49.367188 19.164062 C 49.34375 19.046875 49.367188 18.9375 49.4375 18.839844 C 49.503906 18.746094 49.617188 18.675781 49.773438 18.632812 L 49.808594 18.824219 C 49.648438 18.871094 49.585938 18.96875 49.613281 19.117188 C 49.640625 19.265625 49.738281 19.328125 49.902344 19.3125 Z M 46.585938 18.855469 L 49.042969 18.371094 L 49.121094 18.761719 L 47.480469 19.085938 L 49.277344 19.589844 L 49.359375 20.003906 L 46.898438 20.488281 L 46.824219 20.09375 L 48.425781 19.777344 L 46.664062 19.269531 Z M 46.167969 16.796875 L 48.625 16.3125 L 48.699219 16.707031 L 47.0625 17.027344 L 48.859375 17.53125 L 48.9375 17.945312 L 46.480469 18.429688 L 46.40625 18.035156 L 48.007812 17.722656 L 46.246094 17.210938 Z M 45.585938 15.121094 L 47.855469 14.046875 L 48.03125 14.425781 L 47.0625 14.882812 C 47.113281 14.964844 47.167969 15.007812 47.226562 15.019531 C 47.289062 15.03125 47.421875 15.019531 47.621094 14.992188 C 47.820312 14.960938 47.972656 14.957031 48.078125 14.976562 C 48.1875 14.996094 48.261719 15.035156 48.3125 15.089844 C 48.359375 15.148438 48.421875 15.253906 48.5 15.410156 L 48.160156 15.570312 L 48.136719 15.515625 C 48.085938 15.40625 48.027344 15.347656 47.960938 15.332031 C 47.894531 15.316406 47.78125 15.320312 47.625 15.347656 C 47.464844 15.375 47.355469 15.382812 47.296875 15.375 C 47.238281 15.371094 47.167969 15.34375 47.09375 15.304688 C 47.097656 15.402344 47.074219 15.496094 47.023438 15.585938 C 46.972656 15.675781 46.871094 15.800781 46.726562 15.957031 L 46.222656 16.511719 L 46.019531 16.0625 L 46.5 15.558594 C 46.625 15.429688 46.707031 15.328125 46.746094 15.261719 C 46.785156 15.191406 46.789062 15.113281 46.753906 15.03125 L 45.761719 15.5 Z M 45.984375 13.941406 L 46.078125 14.367188 C 45.8125 14.472656 45.582031 14.503906 45.394531 14.453125 C 45.207031 14.402344 45.050781 14.289062 44.933594 14.109375 C 44.785156 13.886719 44.746094 13.644531 44.824219 13.386719 C 44.914062 13.09375 45.128906 12.828125 45.464844 12.601562 C 45.816406 12.359375 46.148438 12.25 46.457031 12.273438 C 46.722656 12.296875 46.9375 12.425781 47.09375 12.664062 C 47.222656 12.855469 47.265625 13.0625 47.222656 13.28125 C 47.191406 13.4375 47.097656 13.601562 46.945312 13.769531 L 46.617188 13.492188 C 46.714844 13.394531 46.773438 13.289062 46.789062 13.183594 C 46.804688 13.078125 46.78125 12.980469 46.722656 12.890625 C 46.640625 12.761719 46.515625 12.695312 46.351562 12.691406 C 46.1875 12.683594 45.980469 12.769531 45.730469 12.941406 C 45.46875 13.121094 45.308594 13.285156 45.25 13.441406 C 45.191406 13.59375 45.203125 13.734375 45.289062 13.859375 C 45.347656 13.953125 45.4375 14.007812 45.550781 14.027344 C 45.667969 14.042969 45.808594 14.015625 45.984375 13.941406 Z M 43.257812 11.855469 L 45.148438 10.1875 L 46.148438 11.355469 L 45.828125 11.636719 L 45.097656 10.785156 L 44.679688 11.15625 L 45.355469 11.945312 L 45.039062 12.226562 L 44.359375 11.4375 L 43.847656 11.890625 L 44.601562 12.769531 L 44.28125 13.046875 Z M 42.78125 9.230469 L 43.367188 8.542969 L 43.679688 8.820312 L 43.242188 9.328125 C 43.152344 9.433594 43.089844 9.515625 43.054688 9.578125 C 43.019531 9.636719 43.007812 9.703125 43.015625 9.777344 C 43.027344 9.847656 43.078125 9.921875 43.167969 10 C 43.296875 10.117188 43.433594 10.175781 43.574219 10.175781 L 44.28125 9.351562 L 44.59375 9.625 L 42.949219 11.542969 L 42.636719 11.265625 L 43.300781 10.496094 C 43.117188 10.457031 42.964844 10.378906 42.84375 10.269531 C 42.671875 10.121094 42.578125 9.953125 42.566406 9.769531 C 42.554688 9.589844 42.625 9.410156 42.78125 9.230469 Z M 40.117188 9.230469 L 41.625 7.203125 L 41.9375 7.445312 L 40.933594 8.796875 L 42.601562 7.953125 L 42.933594 8.203125 L 41.425781 10.234375 L 41.113281 9.992188 L 42.09375 8.667969 L 40.449219 9.484375 Z M 38.046875 7.96875 L 39.335938 5.792969 L 39.871094 6.117188 L 39.308594 7.796875 L 40.503906 6.503906 L 41.039062 6.828125 L 39.746094 9.003906 L 39.417969 8.804688 L 40.433594 7.089844 L 39.070312 8.589844 L 38.726562 8.382812 L 39.394531 6.457031 L 38.378906 8.171875 Z M 36.847656 6.058594 C 36.726562 6.324219 36.683594 6.546875 36.722656 6.726562 C 36.761719 6.90625 36.851562 7.03125 37 7.097656 C 37.148438 7.167969 37.300781 7.160156 37.457031 7.074219 C 37.613281 6.988281 37.753906 6.8125 37.878906 6.539062 C 38.003906 6.273438 38.046875 6.054688 38.011719 5.878906 C 37.976562 5.707031 37.882812 5.585938 37.726562 5.511719 C 37.574219 5.441406 37.421875 5.445312 37.265625 5.53125 C 37.109375 5.613281 36.972656 5.789062 36.847656 6.058594 Z M 36.453125 5.894531 C 36.578125 5.617188 36.722656 5.410156 36.882812 5.273438 C 37.046875 5.132812 37.210938 5.050781 37.378906 5.023438 C 37.550781 5 37.726562 5.027344 37.910156 5.117188 C 38.175781 5.242188 38.34375 5.445312 38.417969 5.734375 C 38.492188 6.019531 38.441406 6.351562 38.265625 6.734375 C 38.085938 7.117188 37.859375 7.375 37.582031 7.507812 C 37.339844 7.628906 37.082031 7.621094 36.816406 7.496094 C 36.546875 7.367188 36.378906 7.171875 36.308594 6.910156 C 36.230469 6.609375 36.277344 6.269531 36.453125 5.894531 Z M 34.046875 6.371094 L 34.863281 3.96875 L 35.253906 4.105469 L 34.933594 5.050781 L 35.703125 5.320312 L 36.023438 4.375 L 36.417969 4.511719 L 35.601562 6.914062 L 35.207031 6.777344 L 35.566406 5.726562 L 34.796875 5.457031 L 34.4375 6.507812 Z M 32.546875 4.652344 C 32.472656 4.933594 32.46875 5.160156 32.535156 5.328125 C 32.605469 5.5 32.71875 5.605469 32.875 5.648438 C 33.03125 5.691406 33.179688 5.65625 33.320312 5.542969 C 33.460938 5.429688 33.570312 5.230469 33.644531 4.941406 C 33.722656 4.65625 33.726562 4.433594 33.660156 4.269531 C 33.597656 4.105469 33.484375 4 33.320312 3.957031 C 33.15625 3.914062 33.007812 3.945312 32.867188 4.054688 C 32.730469 4.164062 32.621094 4.363281 32.546875 4.652344 Z M 32.128906 4.554688 C 32.207031 4.261719 32.3125 4.035156 32.449219 3.867188 C 32.582031 3.703125 32.730469 3.59375 32.894531 3.535156 C 33.054688 3.480469 33.234375 3.480469 33.429688 3.535156 C 33.714844 3.609375 33.917969 3.785156 34.039062 4.050781 C 34.15625 4.320312 34.164062 4.65625 34.058594 5.0625 C 33.949219 5.472656 33.769531 5.769531 33.519531 5.949219 C 33.300781 6.109375 33.046875 6.148438 32.761719 6.070312 C 32.476562 5.992188 32.273438 5.828125 32.160156 5.582031 C 32.035156 5.300781 32.023438 4.957031 32.128906 4.554688 Z M 30.183594 5.457031 L 30.660156 2.964844 L 31.066406 3.042969 L 30.863281 4.105469 C 30.953125 4.113281 31.023438 4.09375 31.066406 4.050781 C 31.113281 4.007812 31.179688 3.894531 31.273438 3.710938 C 31.371094 3.53125 31.457031 3.402344 31.535156 3.324219 C 31.613281 3.25 31.6875 3.210938 31.761719 3.203125 C 31.832031 3.199219 31.957031 3.207031 32.125 3.234375 L 32.054688 3.609375 L 31.996094 3.597656 C 31.882812 3.574219 31.800781 3.585938 31.746094 3.632812 C 31.695312 3.675781 31.632812 3.773438 31.5625 3.917969 C 31.488281 4.0625 31.433594 4.160156 31.390625 4.203125 C 31.351562 4.25 31.292969 4.289062 31.214844 4.324219 C 31.296875 4.382812 31.359375 4.457031 31.398438 4.550781 C 31.4375 4.644531 31.480469 4.800781 31.523438 5.011719 L 31.667969 5.75 L 31.1875 5.65625 L 31.070312 4.960938 C 31.039062 4.785156 31.007812 4.660156 30.976562 4.585938 C 30.945312 4.511719 30.882812 4.464844 30.796875 4.445312 L 30.585938 5.535156 Z M 28.835938 4.28125 L 28.863281 3.851562 L 29.507812 3.898438 C 29.5 3.683594 29.457031 3.519531 29.378906 3.398438 C 29.296875 3.277344 29.1875 3.210938 29.054688 3.203125 C 28.832031 3.1875 28.675781 3.316406 28.585938 3.589844 L 28.183594 3.449219 C 28.25 3.210938 28.355469 3.035156 28.511719 2.917969 C 28.667969 2.800781 28.851562 2.75 29.070312 2.765625 C 29.359375 2.785156 29.582031 2.921875 29.734375 3.171875 C 29.890625 3.421875 29.957031 3.75 29.925781 4.15625 C 29.902344 4.546875 29.792969 4.855469 29.609375 5.082031 C 29.425781 5.304688 29.191406 5.40625 28.910156 5.386719 C 28.445312 5.351562 28.175781 5.0625 28.105469 4.511719 L 28.53125 4.378906 C 28.539062 4.554688 28.582031 4.691406 28.65625 4.789062 C 28.734375 4.890625 28.832031 4.941406 28.957031 4.953125 C 29.226562 4.96875 29.402344 4.761719 29.476562 4.328125 Z M 25.273438 1.957031 L 25.464844 1.941406 C 25.46875 2.105469 25.433594 2.230469 25.363281 2.324219 C 25.289062 2.417969 25.191406 2.472656 25.074219 2.480469 C 24.953125 2.492188 24.851562 2.457031 24.765625 2.378906 C 24.675781 2.300781 24.621094 2.179688 24.59375 2.019531 L 24.785156 2.003906 C 24.816406 2.167969 24.902344 2.242188 25.050781 2.230469 C 25.199219 2.214844 25.273438 2.125 25.273438 1.957031 Z M 24.480469 5.253906 L 24.261719 2.726562 L 24.652344 2.691406 L 24.800781 4.375 L 25.480469 2.617188 L 25.894531 2.578125 L 26.113281 5.109375 L 25.71875 5.144531 L 25.578125 3.496094 L 24.894531 5.21875 Z M 23.695312 5.285156 L 23.476562 2.757812 L 23.890625 2.71875 L 24.105469 5.25 Z M 21.976562 4.335938 L 22.035156 5 L 22.46875 4.964844 C 22.582031 4.953125 22.664062 4.9375 22.714844 4.917969 C 22.761719 4.898438 22.804688 4.855469 22.835938 4.796875 C 22.871094 4.734375 22.882812 4.667969 22.878906 4.59375 C 22.859375 4.367188 22.710938 4.269531 22.429688 4.292969 Z M 21.660156 5.464844 L 21.441406 2.9375 L 21.851562 2.898438 L 21.941406 3.90625 L 22.527344 3.855469 C 22.742188 3.835938 22.921875 3.890625 23.0625 4.023438 C 23.203125 4.152344 23.28125 4.332031 23.300781 4.566406 C 23.320312 4.757812 23.28125 4.933594 23.191406 5.097656 C 23.101562 5.261719 22.925781 5.355469 22.660156 5.378906 Z M 19.578125 5.800781 L 19.101562 3.308594 L 19.507812 3.226562 L 19.695312 4.207031 L 20.492188 4.050781 L 20.304688 3.070312 L 20.714844 2.988281 L 21.191406 5.480469 L 20.785156 5.5625 L 20.574219 4.472656 L 19.777344 4.628906 L 19.984375 5.71875 Z M 17.574219 6.3125 L 16.882812 3.871094 L 17.28125 3.757812 L 17.554688 4.71875 L 18.335938 4.492188 L 18.0625 3.53125 L 18.460938 3.414062 L 19.152344 5.855469 L 18.753906 5.972656 L 18.453125 4.902344 L 17.667969 5.132812 L 17.972656 6.199219 Z M 15.792969 6.933594 L 14.898438 4.5625 L 16.320312 4.011719 L 16.472656 4.410156 L 15.433594 4.816406 L 15.632812 5.339844 L 16.597656 4.964844 L 16.75 5.363281 L 15.785156 5.738281 L 16.03125 6.382812 L 17.101562 5.96875 L 17.253906 6.367188 Z M 13.8125 6.5625 L 14.074219 7.1875 L 14.429688 7.035156 C 14.585938 6.96875 14.679688 6.917969 14.71875 6.882812 C 14.753906 6.847656 14.777344 6.796875 14.789062 6.734375 C 14.796875 6.675781 14.785156 6.605469 14.753906 6.53125 C 14.722656 6.457031 14.679688 6.398438 14.628906 6.363281 C 14.574219 6.328125 14.519531 6.3125 14.457031 6.316406 C 14.398438 6.320312 14.285156 6.359375 14.121094 6.429688 Z M 13.425781 5.632812 L 13.652344 6.171875 L 13.902344 6.0625 C 14.054688 6 14.144531 5.957031 14.179688 5.933594 C 14.238281 5.898438 14.277344 5.847656 14.296875 5.785156 C 14.316406 5.726562 14.308594 5.65625 14.273438 5.578125 C 14.246094 5.507812 14.207031 5.460938 14.160156 5.429688 C 14.113281 5.398438 14.0625 5.386719 14.015625 5.394531 C 13.96875 5.402344 13.847656 5.449219 13.644531 5.539062 Z M 12.882812 5.40625 L 13.636719 5.082031 C 13.84375 4.992188 13.996094 4.949219 14.097656 4.953125 C 14.195312 4.953125 14.296875 4.992188 14.394531 5.0625 C 14.492188 5.132812 14.566406 5.230469 14.617188 5.351562 C 14.664062 5.464844 14.683594 5.578125 14.671875 5.691406 C 14.660156 5.804688 14.625 5.898438 14.566406 5.976562 C 14.695312 5.96875 14.8125 6 14.914062 6.070312 C 15.019531 6.140625 15.101562 6.246094 15.160156 6.386719 C 15.230469 6.554688 15.25 6.714844 15.21875 6.867188 C 15.1875 7.019531 15.121094 7.132812 15.023438 7.210938 C 14.957031 7.261719 14.78125 7.347656 14.503906 7.46875 L 13.859375 7.746094 Z M 12.746094 8.347656 L 11.738281 6.503906 L 11.203125 6.804688 L 11 6.425781 L 12.425781 5.625 L 12.632812 6 L 12.101562 6.300781 L 13.109375 8.144531 Z M 11.125 8.199219 L 11.542969 8.09375 C 11.652344 8.363281 11.683594 8.59375 11.640625 8.785156 C 11.59375 8.976562 11.484375 9.136719 11.308594 9.257812 C 11.089844 9.414062 10.851562 9.457031 10.597656 9.378906 C 10.304688 9.292969 10.042969 9.082031 9.8125 8.746094 C 9.566406 8.394531 9.453125 8.058594 9.472656 7.746094 C 9.488281 7.476562 9.613281 7.257812 9.84375 7.09375 C 10.03125 6.960938 10.234375 6.914062 10.453125 6.953125 C 10.605469 6.980469 10.769531 7.074219 10.9375 7.226562 L 10.667969 7.5625 C 10.570312 7.464844 10.46875 7.410156 10.363281 7.394531 C 10.257812 7.378906 10.160156 7.402344 10.074219 7.464844 C 9.949219 7.554688 9.886719 7.679688 9.882812 7.84375 C 9.882812 8.011719 9.96875 8.21875 10.140625 8.472656 C 10.324219 8.734375 10.488281 8.894531 10.644531 8.949219 C 10.796875 9.007812 10.933594 8.992188 11.054688 8.90625 C 11.144531 8.839844 11.199219 8.75 11.214844 8.632812 C 11.230469 8.515625 11.203125 8.371094 11.125 8.199219 Z M 8.121094 9.003906 L 8.558594 9.570312 L 8.738281 9.429688 C 8.859375 9.332031 8.933594 9.257812 8.964844 9.207031 C 8.996094 9.15625 9.007812 9.097656 9 9.03125 C 8.992188 8.960938 8.964844 8.894531 8.914062 8.832031 C 8.863281 8.765625 8.804688 8.71875 8.742188 8.695312 C 8.675781 8.671875 8.617188 8.671875 8.5625 8.6875 C 8.511719 8.707031 8.414062 8.769531 8.277344 8.878906 Z M 9.074219 10.925781 L 7.53125 8.921875 L 8.058594 8.507812 C 8.253906 8.351562 8.390625 8.261719 8.464844 8.234375 C 8.582031 8.1875 8.714844 8.191406 8.855469 8.242188 C 8.996094 8.292969 9.125 8.398438 9.25 8.558594 C 9.359375 8.703125 9.425781 8.84375 9.449219 8.984375 C 9.46875 9.125 9.453125 9.25 9.40625 9.351562 C 9.355469 9.457031 9.230469 9.585938 9.035156 9.742188 L 8.820312 9.910156 L 9.402344 10.667969 Z M 7.664062 10.933594 L 6.792969 10.5 L 7.28125 11.347656 Z M 8.910156 11.050781 L 8.601562 11.386719 L 8.0625 11.125 L 7.503906 11.734375 L 7.804688 12.253906 L 7.503906 12.578125 L 6.21875 10.253906 L 6.519531 9.929688 Z M 5.347656 11.941406 L 5.003906 12.457031 C 5.617188 12.875 6.042969 13.238281 6.285156 13.539062 L 6.722656 12.882812 Z M 6.953125 12.535156 L 7.050781 12.386719 L 7.855469 12.9375 L 7.664062 13.222656 L 7.210938 12.914062 L 6.488281 14.003906 L 6.941406 14.3125 L 6.75 14.597656 L 5.945312 14.046875 L 6.042969 13.90625 C 5.933594 13.75 5.785156 13.585938 5.601562 13.414062 C 5.417969 13.242188 5.121094 13.015625 4.710938 12.738281 L 4.433594 12.546875 L 5.226562 11.355469 Z M 5.175781 14.871094 L 3.230469 14.726562 L 3.441406 14.304688 L 4.816406 14.472656 L 3.84375 13.503906 L 4.039062 13.113281 L 5.421875 14.617188 C 5.589844 14.800781 5.699219 14.949219 5.746094 15.066406 C 5.792969 15.179688 5.792969 15.289062 5.742188 15.390625 C 5.695312 15.488281 5.640625 15.570312 5.585938 15.636719 L 5.25 15.460938 C 5.285156 15.402344 5.3125 15.355469 5.328125 15.324219 C 5.375 15.234375 5.386719 15.160156 5.367188 15.105469 C 5.347656 15.050781 5.285156 14.972656 5.175781 14.871094 Z M 4.324219 16.21875 L 4.546875 15.84375 C 4.8125 15.957031 4.996094 16.09375 5.097656 16.261719 C 5.199219 16.433594 5.230469 16.621094 5.195312 16.835938 C 5.148438 17.101562 5.007812 17.300781 4.777344 17.429688 C 4.507812 17.582031 4.175781 17.617188 3.777344 17.546875 C 3.359375 17.472656 3.046875 17.316406 2.839844 17.082031 C 2.664062 16.878906 2.597656 16.636719 2.648438 16.355469 C 2.6875 16.125 2.800781 15.945312 2.980469 15.820312 C 3.109375 15.726562 3.289062 15.675781 3.511719 15.664062 L 3.558594 16.09375 C 3.421875 16.097656 3.308594 16.128906 3.226562 16.195312 C 3.140625 16.261719 3.089844 16.347656 3.070312 16.453125 C 3.042969 16.601562 3.085938 16.738281 3.199219 16.855469 C 3.3125 16.976562 3.519531 17.0625 3.820312 17.117188 C 4.132812 17.171875 4.359375 17.164062 4.507812 17.09375 C 4.65625 17.023438 4.742188 16.914062 4.769531 16.765625 C 4.785156 16.65625 4.761719 16.554688 4.691406 16.460938 C 4.621094 16.367188 4.5 16.285156 4.324219 16.21875 Z M 3.449219 19.363281 C 3.734375 19.414062 3.953125 19.394531 4.113281 19.3125 C 4.277344 19.230469 4.371094 19.105469 4.398438 18.945312 C 4.425781 18.78125 4.378906 18.636719 4.257812 18.503906 C 4.136719 18.371094 3.929688 18.277344 3.636719 18.226562 C 3.351562 18.175781 3.132812 18.1875 2.976562 18.269531 C 2.820312 18.347656 2.730469 18.472656 2.699219 18.640625 C 2.671875 18.808594 2.714844 18.957031 2.835938 19.089844 C 2.953125 19.21875 3.160156 19.308594 3.449219 19.363281 Z M 3.390625 19.792969 C 3.097656 19.738281 2.863281 19.652344 2.6875 19.53125 C 2.511719 19.40625 2.390625 19.265625 2.324219 19.109375 C 2.253906 18.949219 2.238281 18.769531 2.273438 18.566406 C 2.324219 18.273438 2.476562 18.054688 2.730469 17.90625 C 2.984375 17.761719 3.3125 17.726562 3.722656 17.800781 C 4.132812 17.875 4.441406 18.027344 4.636719 18.265625 C 4.8125 18.476562 4.875 18.726562 4.824219 19.019531 C 4.773438 19.316406 4.628906 19.53125 4.398438 19.667969 C 4.132812 19.824219 3.796875 19.863281 3.390625 19.792969 Z M 4.847656 21.621094 L 2.417969 22.148438 L 2.117188 20.714844 L 2.53125 20.625 L 2.746094 21.648438 L 4.761719 21.214844 Z M 2.09375 24.070312 L 2.050781 23.878906 C 2.210938 23.855469 2.339844 23.875 2.441406 23.9375 C 2.542969 24 2.605469 24.089844 2.628906 24.207031 C 2.652344 24.324219 2.632812 24.433594 2.566406 24.53125 C 2.496094 24.628906 2.386719 24.699219 2.234375 24.746094 L 2.195312 24.554688 C 2.351562 24.507812 2.414062 24.40625 2.382812 24.257812 C 2.351562 24.113281 2.253906 24.046875 2.09375 24.070312 Z M 5.414062 24.46875 L 2.964844 24.996094 L 2.882812 24.605469 L 4.515625 24.253906 L 2.710938 23.78125 L 2.625 23.367188 L 5.074219 22.839844 L 5.15625 23.234375 L 3.558594 23.578125 L 5.328125 24.054688 Z M 6.371094 26.335938 L 4.179688 27.566406 L 3.988281 27.214844 L 5.449219 26.394531 L 3.585938 26.480469 L 3.386719 26.109375 L 5.578125 24.878906 L 5.769531 25.230469 L 4.339844 26.03125 L 6.167969 25.964844 Z M 7.421875 27.730469 L 5.449219 29.292969 L 5.191406 28.964844 L 6.03125 28.296875 C 5.96875 28.230469 5.902344 28.199219 5.84375 28.203125 C 5.78125 28.207031 5.65625 28.246094 5.46875 28.320312 C 5.277344 28.394531 5.128906 28.433594 5.023438 28.4375 C 4.914062 28.445312 4.832031 28.425781 4.773438 28.378906 C 4.714844 28.335938 4.628906 28.246094 4.515625 28.113281 L 4.8125 27.878906 L 4.847656 27.925781 C 4.917969 28.019531 4.988281 28.066406 5.058594 28.066406 C 5.125 28.066406 5.234375 28.035156 5.382812 27.972656 C 5.53125 27.910156 5.636719 27.878906 5.699219 27.871094 C 5.757812 27.863281 5.828125 27.871094 5.910156 27.894531 C 5.882812 27.800781 5.886719 27.703125 5.917969 27.605469 C 5.949219 27.503906 6.015625 27.363281 6.125 27.175781 L 6.492188 26.523438 L 6.789062 26.910156 L 6.433594 27.511719 C 6.339844 27.667969 6.285156 27.78125 6.257812 27.859375 C 6.234375 27.933594 6.25 28.011719 6.304688 28.082031 L 7.167969 27.398438 Z M 7.261719 28.964844 L 7.09375 28.5625 C 7.339844 28.414062 7.558594 28.34375 7.753906 28.359375 C 7.949219 28.375 8.117188 28.460938 8.265625 28.617188 C 8.453125 28.808594 8.527344 29.042969 8.496094 29.308594 C 8.457031 29.613281 8.292969 29.910156 8.003906 30.195312 C 7.695312 30.496094 7.390625 30.660156 7.082031 30.691406 C 6.8125 30.714844 6.582031 30.625 6.386719 30.421875 C 6.226562 30.253906 6.148438 30.058594 6.15625 29.832031 C 6.160156 29.675781 6.222656 29.5 6.34375 29.304688 L 6.714844 29.519531 C 6.636719 29.636719 6.597656 29.746094 6.597656 29.855469 C 6.601562 29.960938 6.640625 30.054688 6.710938 30.132812 C 6.816406 30.242188 6.949219 30.285156 7.113281 30.261719 C 7.273438 30.238281 7.464844 30.121094 7.683594 29.90625 C 7.910156 29.683594 8.039062 29.492188 8.070312 29.332031 C 8.101562 29.167969 8.066406 29.035156 7.960938 28.925781 C 7.886719 28.84375 7.789062 28.804688 7.671875 28.808594 C 7.554688 28.808594 7.417969 28.863281 7.261719 28.964844 Z M 9.40625 31.183594 L 9.839844 30.664062 L 9.542969 30.414062 C 9.414062 30.304688 9.324219 30.238281 9.277344 30.222656 C 9.230469 30.203125 9.175781 30.207031 9.117188 30.226562 C 9.0625 30.246094 9.007812 30.285156 8.953125 30.347656 C 8.902344 30.410156 8.871094 30.472656 8.863281 30.539062 C 8.855469 30.601562 8.867188 30.660156 8.898438 30.710938 C 8.929688 30.765625 9.015625 30.851562 9.152344 30.964844 Z M 8.769531 31.957031 L 9.140625 31.507812 L 8.929688 31.328125 C 8.804688 31.222656 8.726562 31.160156 8.691406 31.136719 C 8.628906 31.101562 8.570312 31.089844 8.507812 31.101562 C 8.445312 31.109375 8.386719 31.148438 8.335938 31.214844 C 8.289062 31.273438 8.261719 31.328125 8.257812 31.386719 C 8.25 31.441406 8.261719 31.492188 8.289062 31.53125 C 8.320312 31.566406 8.417969 31.660156 8.585938 31.800781 Z M 8.816406 32.550781 L 8.1875 32.015625 C 8.015625 31.867188 7.90625 31.75 7.863281 31.660156 C 7.820312 31.566406 7.808594 31.460938 7.828125 31.339844 C 7.84375 31.21875 7.898438 31.105469 7.980469 31.003906 C 8.058594 30.910156 8.148438 30.84375 8.253906 30.804688 C 8.355469 30.761719 8.457031 30.753906 8.550781 30.773438 C 8.484375 30.660156 8.460938 30.539062 8.476562 30.414062 C 8.488281 30.285156 8.542969 30.164062 8.640625 30.046875 C 8.757812 29.90625 8.890625 29.816406 9.039062 29.777344 C 9.1875 29.734375 9.316406 29.742188 9.425781 29.796875 C 9.503906 29.835938 9.660156 29.953125 9.890625 30.148438 L 10.425781 30.605469 Z M 11.335938 32.742188 C 11.492188 32.5 11.5625 32.285156 11.550781 32.101562 C 11.535156 31.917969 11.460938 31.78125 11.328125 31.695312 C 11.191406 31.605469 11.039062 31.589844 10.871094 31.652344 C 10.703125 31.714844 10.539062 31.871094 10.378906 32.125 C 10.21875 32.371094 10.144531 32.582031 10.15625 32.757812 C 10.167969 32.933594 10.246094 33.066406 10.386719 33.160156 C 10.527344 33.253906 10.679688 33.269531 10.847656 33.210938 C 11.011719 33.148438 11.175781 32.992188 11.335938 32.742188 Z M 11.703125 32.964844 C 11.539062 33.21875 11.367188 33.402344 11.1875 33.519531 C 11.011719 33.632812 10.835938 33.691406 10.664062 33.695312 C 10.492188 33.695312 10.324219 33.640625 10.152344 33.527344 C 9.90625 33.367188 9.765625 33.140625 9.734375 32.847656 C 9.699219 32.554688 9.796875 32.230469 10.023438 31.878906 C 10.25 31.523438 10.511719 31.296875 10.804688 31.203125 C 11.0625 31.121094 11.3125 31.164062 11.5625 31.324219 C 11.8125 31.488281 11.953125 31.707031 11.984375 31.976562 C 12.019531 32.285156 11.925781 32.613281 11.703125 32.964844 Z M 13.460938 32.480469 L 12.484375 34.34375 L 13.023438 34.632812 L 12.824219 35.011719 L 11.382812 34.234375 L 11.582031 33.855469 L 12.117188 34.144531 L 13.09375 32.28125 Z M 14.21875 33.863281 L 13.898438 33.570312 C 14.058594 33.328125 14.226562 33.171875 14.410156 33.101562 C 14.59375 33.03125 14.785156 33.035156 14.980469 33.113281 C 15.230469 33.210938 15.398438 33.386719 15.480469 33.640625 C 15.574219 33.9375 15.546875 34.277344 15.402344 34.65625 C 15.25 35.0625 15.039062 35.34375 14.773438 35.503906 C 14.542969 35.640625 14.292969 35.65625 14.03125 35.554688 C 13.816406 35.472656 13.664062 35.328125 13.574219 35.121094 C 13.511719 34.976562 13.496094 34.789062 13.527344 34.5625 L 13.953125 34.597656 C 13.929688 34.738281 13.941406 34.855469 13.988281 34.949219 C 14.035156 35.046875 14.105469 35.117188 14.207031 35.152344 C 14.347656 35.207031 14.488281 35.191406 14.621094 35.101562 C 14.757812 35.011719 14.882812 34.820312 14.992188 34.535156 C 15.105469 34.234375 15.140625 34.007812 15.101562 33.847656 C 15.0625 33.6875 14.972656 33.578125 14.832031 33.523438 C 14.730469 33.484375 14.628906 33.492188 14.523438 33.542969 C 14.417969 33.59375 14.316406 33.699219 14.21875 33.863281 Z M 17.179688 35.304688 C 17.265625 35.027344 17.273438 34.800781 17.214844 34.628906 C 17.148438 34.457031 17.042969 34.34375 16.886719 34.296875 C 16.730469 34.25 16.582031 34.277344 16.4375 34.386719 C 16.292969 34.492188 16.179688 34.6875 16.089844 34.976562 C 16.007812 35.257812 15.992188 35.480469 16.050781 35.648438 C 16.109375 35.8125 16.222656 35.921875 16.382812 35.96875 C 16.542969 36.019531 16.695312 35.992188 16.835938 35.890625 C 16.980469 35.785156 17.09375 35.589844 17.179688 35.304688 Z M 17.59375 35.414062 C 17.507812 35.703125 17.390625 35.929688 17.25 36.089844 C 17.109375 36.25 16.957031 36.355469 16.792969 36.40625 C 16.628906 36.457031 16.453125 36.449219 16.257812 36.390625 C 15.976562 36.304688 15.78125 36.125 15.667969 35.851562 C 15.558594 35.578125 15.5625 35.242188 15.683594 34.839844 C 15.804688 34.433594 15.996094 34.144531 16.253906 33.972656 C 16.476562 33.824219 16.730469 33.792969 17.011719 33.878906 C 17.296875 33.96875 17.492188 34.136719 17.597656 34.386719 C 17.714844 34.671875 17.714844 35.015625 17.59375 35.414062 Z M 18.835938 36.644531 L 19.007812 35.945312 L 18.785156 35.890625 C 18.636719 35.851562 18.53125 35.835938 18.472656 35.84375 C 18.414062 35.851562 18.359375 35.878906 18.3125 35.925781 C 18.265625 35.972656 18.230469 36.035156 18.210938 36.117188 C 18.191406 36.199219 18.191406 36.273438 18.210938 36.335938 C 18.234375 36.402344 18.269531 36.449219 18.316406 36.484375 C 18.363281 36.515625 18.472656 36.550781 18.640625 36.59375 Z M 19.738281 34.699219 L 19.132812 37.164062 L 18.488281 37 C 18.246094 36.9375 18.089844 36.886719 18.023438 36.84375 C 17.914062 36.777344 17.835938 36.671875 17.789062 36.527344 C 17.742188 36.382812 17.746094 36.214844 17.792969 36.015625 C 17.835938 35.839844 17.90625 35.699219 18.003906 35.59375 C 18.097656 35.492188 18.203125 35.425781 18.3125 35.402344 C 18.425781 35.378906 18.601562 35.398438 18.847656 35.460938 L 19.109375 35.527344 L 19.339844 34.597656 Z M 19.738281 34.699219 "/>
<path style=" stroke:none;fill-rule:evenodd;fill:rgb(100%,90.196078%,0%);fill-opacity:1;" d="M 23.414062 37.554688 L 23.414062 35.636719 L 23.886719 35.636719 C 23.953125 35.636719 24.019531 35.640625 24.082031 35.65625 C 24.144531 35.667969 24.199219 35.699219 24.242188 35.746094 C 24.292969 35.796875 24.328125 35.863281 24.347656 35.929688 C 24.375 36.015625 24.390625 36.105469 24.386719 36.195312 C 24.394531 36.339844 24.355469 36.484375 24.285156 36.609375 C 24.195312 36.730469 24.050781 36.796875 23.902344 36.777344 L 23.566406 36.777344 L 23.566406 37.558594 Z M 23.585938 36.550781 L 23.925781 36.550781 C 24.011719 36.558594 24.097656 36.527344 24.160156 36.460938 C 24.207031 36.382812 24.230469 36.292969 24.226562 36.199219 C 24.226562 36.128906 24.214844 36.058594 24.183594 35.992188 C 24.164062 35.941406 24.125 35.902344 24.078125 35.878906 C 24.023438 35.871094 23.96875 35.871094 23.917969 35.878906 L 23.578125 35.878906 Z M 23.585938 36.550781 "/>
<path style=" stroke:none;fill-rule:evenodd;fill:rgb(100%,90.196078%,0%);fill-opacity:1;" d="M 24.800781 35.636719 L 24.957031 35.636719 L 24.957031 37.160156 L 25.636719 35.636719 L 25.804688 35.636719 L 25.804688 37.554688 L 25.648438 37.554688 L 25.648438 36.039062 L 24.972656 37.554688 L 24.796875 37.554688 Z M 24.800781 35.636719 "/>
<path style=" stroke:none;fill-rule:evenodd;fill:rgb(100%,90.196078%,0%);fill-opacity:1;" d="M 26.285156 37.554688 L 26.285156 35.636719 L 26.457031 35.636719 L 26.457031 36.425781 L 27.136719 36.425781 L 27.136719 35.636719 L 27.308594 35.636719 L 27.308594 37.554688 L 27.136719 37.554688 L 27.136719 36.652344 L 26.457031 36.652344 L 26.457031 37.554688 Z M 26.285156 37.554688 "/>
<path style=" stroke:none;fill-rule:evenodd;fill:rgb(100%,90.196078%,0%);fill-opacity:1;" d="M 27.632812 37.554688 L 28.128906 36.5625 L 27.6875 35.636719 L 27.894531 35.636719 L 28.132812 36.132812 C 28.179688 36.230469 28.214844 36.3125 28.234375 36.363281 C 28.265625 36.292969 28.296875 36.222656 28.339844 36.144531 L 28.597656 35.636719 L 28.78125 35.636719 L 28.335938 36.550781 L 28.820312 37.554688 L 28.609375 37.554688 L 28.273438 36.863281 L 28.21875 36.746094 L 28.160156 36.878906 L 27.820312 37.546875 Z M 27.632812 37.554688 "/>
<path style=" stroke:none;fill-rule:evenodd;fill:rgb(100%,90.196078%,0%);fill-opacity:1;" d="M 23.210938 35.261719 C 22.867188 35.636719 22.683594 36.132812 22.699219 36.644531 C 22.691406 37.152344 22.871094 37.648438 23.210938 38.027344 L 22.929688 38.027344 C 22.578125 37.65625 22.386719 37.15625 22.394531 36.644531 C 22.390625 36.128906 22.582031 35.632812 22.929688 35.261719 Z M 23.210938 35.261719 "/>
<path style=" stroke:none;fill-rule:evenodd;fill:rgb(100%,90.196078%,0%);fill-opacity:1;" d="M 29.308594 35.261719 C 29.65625 35.632812 29.847656 36.128906 29.839844 36.644531 C 29.847656 37.15625 29.660156 37.65625 29.308594 38.027344 L 29.027344 38.027344 C 29.363281 37.648438 29.546875 37.152344 29.539062 36.644531 C 29.550781 36.132812 29.367188 35.636719 29.027344 35.261719 Z M 29.308594 35.261719 "/>
</g>
</svg>
